<?xml version="1.0" standalone="no"?>
<!DOCTYPE svg PUBLIC "-//W3C//DTD SVG 20010904//EN"
 "http://www.w3.org/TR/2001/REC-SVG-20010904/DTD/svg10.dtd">
<svg version="1.0" xmlns="http://www.w3.org/2000/svg"
 width="229.000000pt" height="300.000000pt" viewBox="0 0 229.000000 300.000000"
 preserveAspectRatio="xMidYMid meet">

<g transform="translate(0.000000,300.000000) scale(0.100000,-0.100000)"
fill="#ffffffff" stroke="none">
<path d="M1020 2389 c-78 -9 -240 -55 -258 -73 -12 -11 -10 -17 9 -35 29 -27
31 -27 108 6 62 26 64 26 77 8 8 -10 14 -39 14 -63 0 -36 -2 -42 -14 -33 -10
9 -16 8 -25 -3 -18 -21 -10 -49 17 -61 26 -11 29 -21 36 -126 7 -91 12 -109
36 -109 28 0 34 18 15 46 -9 14 -19 57 -22 97 l-6 72 24 -18 c135 -99 329
-209 359 -205 8 1 39 -6 69 -15 62 -19 71 -20 71 -9 0 5 -19 15 -42 22 -98 29
-241 112 -377 220 -23 18 -23 20 -5 26 102 34 194 110 194 160 0 49 -62 82
-185 97 -16 2 -59 0 -95 -4z m215 -63 c24 -16 24 -18 10 -45 -20 -40 -90 -97
-141 -117 -41 -15 -45 -15 -69 0 -20 13 -25 25 -25 55 0 56 24 107 57 120 38
14 138 7 168 -13z"/>
<path d="M359 2183 c-13 -16 -12 -17 4 -4 9 7 17 15 17 17 0 8 -8 3 -21 -13z"/>
<path d="M558 1073 c-9 -17 -8 -389 1 -402 14 -22 31 -3 31 34 0 39 27 115 41
115 10 0 12 -16 9 -71 -1 -22 5 -41 15 -49 14 -12 20 -10 41 16 l24 29 -2 -30
c-2 -24 1 -31 17 -33 19 -3 21 2 19 61 -1 36 -4 69 -8 76 -14 21 -26 11 -26
-22 0 -30 -24 -67 -43 -67 -4 0 -7 24 -7 53 0 48 -12 77 -32 77 -15 0 -48 -44
-48 -64 -1 -19 -1 -20 -11 -3 -7 12 -6 54 2 137 11 107 11 122 -3 136 -9 9
-18 12 -20 7z"/>
<path d="M2168 1022 c-3 -26 -6 -110 -7 -187 -2 -154 6 -184 47 -171 12 4 22
12 22 17 0 6 -4 8 -9 4 -24 -14 -36 42 -34 155 1 92 5 116 18 126 23 17 15 85
-13 95 -18 7 -21 3 -24 -39z"/>
<path d="M1873 973 c-77 -42 -126 -85 -118 -105 5 -13 25 -18 93 -22 111 -8
176 -26 180 -50 5 -25 -40 -69 -117 -115 -106 -63 -131 -63 -110 -2 7 20 30
45 63 68 50 35 51 35 17 29 -76 -14 -124 -82 -107 -151 7 -29 45 -34 86 -10
14 8 36 20 50 27 14 7 51 39 83 72 44 45 57 65 55 84 -5 43 -47 63 -151 76
-53 6 -99 14 -102 18 -10 10 116 89 135 85 10 -2 14 -12 13 -30 l-2 -28 30 22
c73 52 -9 79 -98 32z"/>
<path d="M203 980 c-28 -4 -83 -17 -122 -29 -72 -22 -89 -41 -54 -59 19 -10
30 -8 80 15 46 21 63 12 63 -36 0 -30 -4 -38 -16 -37 -27 2 -26 -18 1 -48 21
-22 25 -37 25 -85 0 -63 16 -96 39 -82 12 8 12 12 2 25 -7 8 -15 40 -18 72 -5
47 -4 55 8 48 8 -5 54 -35 102 -67 95 -63 114 -72 195 -93 66 -17 99 -17 52 0
-102 38 -300 161 -290 181 2 6 19 15 37 21 48 17 102 61 109 90 15 59 -91 100
-213 84z m158 -40 c10 -6 19 -17 19 -25 0 -24 -49 -73 -95 -95 -36 -17 -48
-19 -66 -10 -18 10 -21 18 -16 58 6 59 33 82 94 82 24 0 53 -5 64 -10z"/>
<path d="M720 896 c0 -22 23 -36 40 -25 13 8 12 12 -4 24 -25 19 -36 19 -36 1z"/>
<path d="M888 833 c-2 -16 -8 -27 -16 -25 -7 1 -28 -5 -48 -13 -28 -11 -35
-19 -32 -37 2 -19 11 -24 43 -28 l40 -5 0 -54 0 -54 -53 -15 c-58 -16 -112
-61 -112 -93 0 -29 44 -69 77 -70 103 -5 125 15 124 112 0 54 2 59 22 59 27 0
112 38 104 46 -3 3 -16 -1 -29 -9 -12 -8 -42 -18 -65 -22 l-43 -7 0 70 c0 52
4 75 17 87 12 13 13 19 4 25 -7 4 -11 18 -9 30 1 13 -2 25 -9 27 -7 2 -13 -8
-15 -24z m-8 -58 c0 -21 -39 -40 -54 -25 -8 8 -6 15 8 26 25 18 46 18 46 -1z
m10 -214 c0 -44 -15 -92 -33 -103 -16 -11 -68 1 -89 20 -10 8 -18 28 -18 43 0
29 28 51 90 70 46 14 50 11 50 -30z"/>
<path d="M1417 834 c-47 -26 -61 -90 -27 -124 31 -31 74 -26 120 16 51 47 45
55 -11 15 -46 -34 -83 -40 -93 -15 -9 22 -8 24 9 24 47 0 82 59 53 88 -15 15
-17 15 -51 -4z m33 -34 c-6 -11 -19 -24 -30 -30 -28 -15 -27 13 0 40 25 25 45
18 30 -10z"/>
<path d="M1162 828 c-7 -7 -12 -18 -12 -25 0 -18 -10 -16 -27 5 -13 16 -14 15
-8 -8 4 -14 12 -44 18 -67 7 -24 16 -43 22 -43 6 0 9 18 7 43 -3 32 2 47 18
65 11 12 28 22 36 22 8 0 12 5 9 10 -9 14 -48 13 -63 -2z"/>
<path d="M1566 821 c-16 -3 -31 -12 -34 -20 -4 -11 4 -13 37 -7 41 6 42 6 30
-16 -7 -13 -21 -35 -32 -50 -11 -14 -16 -31 -13 -36 11 -18 156 10 156 29 0 7
-7 8 -17 3 -24 -10 -103 -18 -103 -9 0 3 11 23 25 43 44 65 32 81 -49 63z"/>
<path d="M443 808 c-30 -14 -37 -41 -21 -75 25 -52 98 -35 98 23 0 23 -31 65
-47 63 -5 0 -18 -5 -30 -11z m57 -39 c0 -23 -22 -49 -40 -49 -25 0 -27 35 -2
49 22 14 42 14 42 0z"/>
<path d="M1239 808 c-7 -96 -2 -122 18 -95 15 18 25 67 14 67 -5 0 -8 7 -7 16
0 9 -5 19 -11 21 -7 3 -13 -1 -14 -9z"/>
<path d="M1292 808 c-16 -16 -15 -29 1 -25 8 1 11 -8 9 -27 -4 -40 6 -76 21
-76 8 0 12 19 12 58 0 75 -15 98 -43 70z"/>
<path d="M960 777 c-24 -32 -21 -50 13 -71 12 -8 22 -5 41 13 l25 24 6 -26 c7
-27 30 -42 47 -31 7 4 4 10 -6 16 -11 6 -16 23 -16 52 0 30 -5 46 -15 50 -8 3
-15 1 -15 -4 0 -5 -12 -5 -29 0 -25 7 -32 4 -51 -23z m70 4 c0 -13 -40 -61
-51 -61 -16 0 -10 29 11 50 21 21 40 26 40 11z"/>
<path d="M2080 710 c0 -13 7 -20 20 -20 23 0 26 10 8 28 -18 18 -28 15 -28 -8z"/>
<path d="M2240 710 c0 -13 7 -20 20 -20 23 0 26 10 8 28 -18 18 -28 15 -28 -8z"/>
</g>
</svg>
